 http://www.imdb.com/title/tt1858522/  

Complete name                            : Allegiance.2012.BRRip.Xvid.Ac3-ANALOGA.BRR.ANALOG.avi
Format                                   : AVI
Format/Info                              : Audio Video Interleave
File size                                : 1.43 GiB
Duration                                 : 1h 31mn
Overall bit rate                         : 2 252 Kbps

Video
ID                                       : 0
Format                                   : MPEG-4 Visual
Format profile                           : Advanced Simple@L5
Format settings, BVOP                    : 2
Format settings, QPel                    : No
Format settings, GMC                     : No warppoints
Format settings, Matrix                  : Default (MPEG)
Muxing mode                              : Packed bitstream
Codec ID                                 : XVID
Codec ID/Hint                            : XviD
Duration                                 : 1h 31mn
Bit rate                                 : 1 796 Kbps
Width                                    : 720 pixels
Height                                   : 304 pixels
Display aspect ratio                     : 2.35:1
Frame rate                               : 23.976 fps
Color space                              : YUV
Chroma subsampling                       : 4:2:0
Bit depth                                : 8 bits
Scan type                                : Progressive
Compression mode                         : Lossy
Bits/(Pixel*Frame)                       : 0.342
Stream size                              : 1.14 GiB (80%)
Writing library                          : XviD 1.2.1 (UTC 2008-12-04)

Audio
ID                                       : 1
Format                                   : AC-3
Format/Info                              : Audio Coding 3
Mode extension                           : CM (complete main)
Format settings, Endianness              : Big
Codec ID                                 : 2000
Duration                                 : 1h 31mn
Bit rate mode                            : Constant
Bit rate                                 : 448 Kbps
Channel(s)                               : 6 channels
Channel positions                        : Front: L C R, Side: L R, LFE
Sampling rate                            : 48.0 KHz
Bit depth                                : 16 bits
Compression mode                         : Lossy
Stream size                              : 292 MiB (20%)
Alignment                                : Aligned on interleaves
Interleave, duration                     : 64 ms (1.53 video frames)
Interleave, preload duration             : 192 ms
Title                                    : English.track_2_ANALOG
Subs                                     : N/A
Sample                                   : Yes
Source                                   : 720p-Japhson
As humans, we perceive the world in analog. Everything we see and hear is a continuous transmission of information to our senses.
analog.p.2.p@hushmail.com
GREETS:
Rx / REFiLL / BHRG / 26K /DTRG / Xtreme Encode / INSPiRAL / KoDeKinG /LEGiTiMATE / LEGi0N / HDC / PRESTIGE / HOPE / RESiSTANCE
AND ALL THE OUTHER PLACES I LURK AROUND AT!!

 
http://rapidimg.org/server/files/50e332767f302USbLry.png 
http://rapidimg.org/server/files/50e3327666485UVh54I.png